<svg width="48" height="48" viewBox="0 0 48 48" fill="none" xmlns="http://www.w3.org/2000/svg">
<path d="M24 0C10.7452 0 0 10.7452 0 24C0 37.2548 10.7452 48 24 48C37.2548 48 48 37.2548 48 24C48 10.7452 37.2548 0 24 0ZM11.9033 10.1396L16.1748 11.4814C16.7403 11.6672 17.1169 12.1923 17.1826 12.7295L17.4228 15.082L36.7646 17.2411C37.5952 17.402 38.1788 18.1519 38.0625 18.9228L36.8613 25.6903C36.7084 26.3982 36.1222 26.8834 35.4697 26.8914H18.2871L17.9502 28.8104H34.2686C35.1218 28.8404 35.7468 29.4902 35.7568 30.2489C35.7214 31.1144 35.0238 31.6809 34.2686 31.6903H16.2217C15.3114 31.615 14.6432 30.8937 14.7832 30.0116L15.5508 25.787L14.3496 13.9775L11.039 12.9229C10.655 12.7949 10.3668 12.5541 10.1748 12.2021C9.81152 11.4408 10.1508 10.598 10.7988 10.2334C11.1687 10.0411 11.5299 10.0172 11.9033 10.1396ZM18.4072 32.5195C19.6499 32.5195 20.6572 33.5269 20.6572 34.7695C20.6572 36.0121 19.6499 37.0195 18.4072 37.0195C17.1647 37.0195 16.1572 36.0121 16.1572 34.7695C16.1572 33.5269 17.1646 32.5195 18.4072 32.5195ZM31.6142 32.5195C32.8568 32.5195 33.8642 33.5269 33.8642 34.7695C33.8642 36.0121 32.8568 37.0195 31.6142 37.0195C30.3716 37.0195 29.3642 36.0121 29.3642 34.7695C29.3642 33.5269 30.3716 32.5195 31.6142 32.5195Z" fill="#4D77FF"/>
</svg>
